---
config:
    class:
        hideEmptyMembersBox: true
---

classDiagram
    class `components/base-object-properties-1.0.1`:::schemaComponent {
        name: string
        uuid: components/base-object-properties-1.0.1-uuid
        description: string
        extensions: object
        tags: object
    }
    class `components/base-spatial-data-properties-1.0.1`:::schemaComponent {
        name: string*
        uuid: components/base-object-properties-1.0.1-uuid*
        description: string*
        extensions: object*
        tags: object*
        bounding_box: components/bounding-box-1.0.1
        coordinate_reference_system: components/crs-1.0.1
    }
    `components/base-object-properties-1.0.1` <|-- `components/base-spatial-data-properties-1.0.1`
    class `objects/non-parametric-continuous-cumulative-distribution-1.0.1`:::schemaObject {
        name: string*
        uuid: components/base-object-properties-1.0.1-uuid*
        description: string*
        extensions: object*
        tags: object*
        bounding_box: components/bounding-box-1.0.1*
        coordinate_reference_system: components/crs-1.0.1*
        cdf: components/cumulative-distribution-function-1.0.1
        is_declustered: boolean
        support: objects/non-parametric-continuous-cumulative-distribution-1.0.1-support
        attribute_description: components/attribute-description-1.0.1
    }
    `components/base-spatial-data-properties-1.0.1` <|-- `objects/non-parametric-continuous-cumulative-distribution-1.0.1`
    `components/base-object-properties-1.0.1` *-- `components/base-object-properties-1.0.1-uuid` : ref uuid*
    `components/base-spatial-data-properties-1.0.1` *-- `components/bounding-box-1.0.1` : ref bounding_box*
    `components/base-spatial-data-properties-1.0.1` *-- `components/crs-1.0.1` : ref coordinate_reference_system*
    `objects/non-parametric-continuous-cumulative-distribution-1.0.1` *-- `components/cumulative-distribution-function-1.0.1` : ref cdf*
    `objects/non-parametric-continuous-cumulative-distribution-1.0.1` *-- `objects/non-parametric-continuous-cumulative-distribution-1.0.1-support` : ref support*
    `objects/non-parametric-continuous-cumulative-distribution-1.0.1` *-- `components/attribute-description-1.0.1` : ref attribute_description*
    class `components/attribute-description-1.0.1`:::schemaComponent {
        discipline: string
        type: string
        unit: elements/unit-1.0.1
        scale: string
        extensions: object
        tags: object
    }
    `components/attribute-description-1.0.1` *-- `elements/unit-1.0.1` : ref unit*
    class `elements/unit-1.0.1`:::schemaElement {
    }
    class `components/crs-1.0.1`:::schemaComponent {
    }
    class `components/cumulative-distribution-function-1.0.1`:::schemaComponent {
        values: elements/float-array-2-1.0.1
        lower_tail_extrapolation: components/cumulative-distribution-function-1.0.1-lower_tail_extrapolation
        upper_tail_extrapolation: components/cumulative-distribution-function-1.0.1-upper_tail_extrapolation
    }
    `components/cumulative-distribution-function-1.0.1` *-- `elements/float-array-2-1.0.1` : ref values*
    `components/cumulative-distribution-function-1.0.1` *-- `components/cumulative-distribution-function-1.0.1-lower_tail_extrapolation` : ref lower_tail_extrapolation*
    `components/cumulative-distribution-function-1.0.1` *-- `components/cumulative-distribution-function-1.0.1-upper_tail_extrapolation` : ref upper_tail_extrapolation*
    class `components/cumulative-distribution-function-1.0.1-lower_tail_extrapolation`:::schemaImplicit {
    }
    class `elements/float-array-md-1.0.1`:::schemaElement {
        data: elements/binary-blob-1.0.1
        length: integer
        width: integer
        data_type: string = float64
    }
    class `elements/float-array-2-1.0.1`:::schemaElement {
        data: elements/binary-blob-1.0.1*
        length: integer*
        data_type: string = float64*
        width: integer = 2
    }
    `elements/float-array-md-1.0.1` <|-- `elements/float-array-2-1.0.1`
    `elements/float-array-md-1.0.1` *-- `elements/binary-blob-1.0.1` : ref data*
    class `elements/binary-blob-1.0.1`:::schemaElement {
    }
    class `components/cumulative-distribution-function-1.0.1-upper_tail_extrapolation`:::schemaImplicit {
    }
    class `components/base-object-properties-1.0.1-uuid`:::schemaImplicit {
    }
    class `components/bounding-box-1.0.1`:::schemaComponent {
        min_x: number
        max_x: number
        min_y: number
        max_y: number
        min_z: number
        max_z: number
    }
    class `objects/non-parametric-continuous-cumulative-distribution-1.0.1-support`:::schemaImplicit {
    }
