---
config:
    class:
        hideEmptyMembersBox: true
---

classDiagram
    class `components/base-object-properties-1.0.1`:::schemaComponent {
        name: string
        uuid: components/base-object-properties-1.0.1-uuid
        description: string
        extensions: object
        tags: object
    }
    class `components/base-spatial-data-properties-1.0.1`:::schemaComponent {
        name: string*
        uuid: components/base-object-properties-1.0.1-uuid*
        description: string*
        extensions: object*
        tags: object*
        bounding_box: components/bounding-box-1.0.1
        coordinate_reference_system: components/crs-1.0.1
    }
    `components/base-object-properties-1.0.1` <|-- `components/base-spatial-data-properties-1.0.1`
    class `objects/regular-masked-3d-grid-1.1.0`:::schemaObject {
        name: string*
        uuid: components/base-object-properties-1.0.1-uuid*
        description: string*
        extensions: object*
        tags: object*
        bounding_box: components/bounding-box-1.0.1*
        coordinate_reference_system: components/crs-1.0.1*
        origin: array
        size: array
        cell_size: array
        rotation: components/rotation-1.0.1
        mask: components/bool-attribute-1.0.1
        number_of_active_cells: integer
        cell_attributes: components/one-of-attribute-1.1.0
    }
    `components/base-spatial-data-properties-1.0.1` <|-- `objects/regular-masked-3d-grid-1.1.0`
    `components/base-object-properties-1.0.1` *-- `components/base-object-properties-1.0.1-uuid` : ref uuid*
    `components/base-spatial-data-properties-1.0.1` *-- `components/bounding-box-1.0.1` : ref bounding_box*
    `components/base-spatial-data-properties-1.0.1` *-- `components/crs-1.0.1` : ref coordinate_reference_system*
    `objects/regular-masked-3d-grid-1.1.0` *-- `components/rotation-1.0.1` : ref rotation*
    `objects/regular-masked-3d-grid-1.1.0` *-- `components/bool-attribute-1.0.1` : ref mask*
    `objects/regular-masked-3d-grid-1.1.0` *-- `components/one-of-attribute-1.1.0` : ref cell_attributes*
    class `components/bool-attribute-1.0.1`:::schemaComponent {
        name: string
        attribute_type: string = bool
        attribute_description: components/category-attribute-description-1.0.1
        values: elements/bool-array-1-1.0.1
    }
    `components/bool-attribute-1.0.1` *-- `components/category-attribute-description-1.0.1` : ref attribute_description*
    `components/bool-attribute-1.0.1` *-- `elements/bool-array-1-1.0.1` : ref values*
    class `components/category-attribute-description-1.0.1`:::schemaComponent {
        discipline: string
        type: string
        extensions: object
        tags: object
    }
    class `elements/bool-array-1-1.0.1`:::schemaElement {
        data: elements/binary-blob-1.0.1
        length: integer
        data_type: string = bool
    }
    `elements/bool-array-1-1.0.1` *-- `elements/binary-blob-1.0.1` : ref data*
    class `elements/binary-blob-1.0.1`:::schemaElement {
    }
    class `components/crs-1.0.1`:::schemaComponent {
    }
    class `components/one-of-attribute-1.1.0`:::schemaComponent {
    }
    class `components/base-object-properties-1.0.1-uuid`:::schemaImplicit {
    }
    class `components/rotation-1.0.1`:::schemaComponent {
        dip_azimuth: number
        dip: number
        pitch: number
    }
    class `components/bounding-box-1.0.1`:::schemaComponent {
        min_x: number
        max_x: number
        min_y: number
        max_y: number
        min_z: number
        max_z: number
    }
